<?xml version="1.0" encoding="utf-8"?>
<!-- Generator: Adobe Illustrator 22.0.1, SVG Export Plug-In . SVG Version: 6.00 Build 0)  -->
<svg version="1.1" xmlns="http://www.w3.org/2000/svg" xmlns:xlink="http://www.w3.org/1999/xlink" x="0px" y="0px"
	 viewBox="0 0 358 30" style="enable-background:new 0 0 358 30;" xml:space="preserve">
<style type="text/css">
	.st0{fill:#251E1C;}
	.st1{fill-rule:evenodd;clip-rule:evenodd;fill:#3358A2;}
	.st2{fill-rule:evenodd;clip-rule:evenodd;fill:#FFFFFF;}
	.st3{fill:#FFFFFF;}
	.st4{fill-rule:evenodd;clip-rule:evenodd;fill:#0F58A8;}
	.st5{fill:#3358A2;}
	.st6{fill:none;stroke:#868687;stroke-width:0.7597;stroke-miterlimit:10;}
	.st7{fill-rule:evenodd;clip-rule:evenodd;fill:#FFFFFF;stroke:#251E1C;stroke-width:0.5538;stroke-miterlimit:10;}
	.st8{fill:none;stroke:#868687;stroke-miterlimit:10;}
	.st9{fill:none;stroke:#868687;stroke-width:0.9158;stroke-miterlimit:10;}
	.st10{fill:none;stroke:#868687;stroke-width:0.9501;stroke-miterlimit:10;}
	.st11{fill:none;stroke:#868687;stroke-width:0.9667;stroke-miterlimit:10;}
	.st12{fill:none;stroke:#868687;stroke-width:0.7987;stroke-miterlimit:10;}
	.st13{fill:none;stroke:#868687;stroke-width:0.9354;stroke-miterlimit:10;}
	.st14{fill:none;stroke:#868687;stroke-width:0.7564;stroke-miterlimit:10;}
	.st15{fill:none;stroke:#868687;stroke-width:0.7535;stroke-miterlimit:10;}
	.st16{fill:none;stroke:#868687;stroke-width:0.7457;stroke-miterlimit:10;}
	.st17{fill:none;stroke:#868687;stroke-width:0.7532;stroke-miterlimit:10;}
	.st18{fill:none;stroke:#868687;stroke-width:0.7634;stroke-miterlimit:10;}
	.st19{fill:none;stroke:#868687;stroke-width:0.7557;stroke-miterlimit:10;}
	.st20{fill:none;stroke:#868687;stroke-width:0.8087;stroke-miterlimit:10;}
	.st21{fill:none;stroke:#868687;stroke-width:0.7541;stroke-miterlimit:10;}
	.st22{fill:none;stroke:#868687;stroke-width:0.6588;stroke-miterlimit:10;}
	.st23{fill:none;stroke:#868687;stroke-width:1.0459;stroke-miterlimit:10;}
	.st24{fill:#C40018;}
	.st25{fill:#595858;}
</style>
<g id="社名_xFF08_英文_xFF09_">
</g>
<g id="社名_xFF08_和文_xFF09_">
</g>
<g id="VI_x2F_タイプフェース_x5F_和文英文_x5F__xFF12_段組み">
</g>
<g id="VI_x2F_タイプフェース_x5F_英文_x5F_横組み">
</g>
<g id="VI_x2F_タイプフェース_x5F_和文_x5F_横組み">
	<g>
		<path id="社名_xFF08_和文_xFF09__3_" class="st3" d="M130.3,23.7c0.5-0.4,2-1.7,3-4h-2.5v-1.8h2.9V16h-1.2
			c-0.2,0.5-0.3,0.9-0.7,1.8l-1.4-1.1c0-0.1,0.1-0.1,0.1-0.2h-1v1c0.7,1.5,1.3,2.3,1.7,2.8l-0.9,1.6c-0.4-0.6-0.6-1.3-0.8-1.7v6.3
			H128v-6.3c-0.2,0.8-0.5,1.8-1.3,3.3l-0.6-2.4c1.1-1.7,1.5-3.6,1.8-4.6h-1.5v-1.8h1.6V12h1.5v2.7h1.3v1.1c0.7-1.6,0.8-2.9,0.9-3.4
			l1.5,0.2c-0.1,0.9-0.2,1.1-0.2,1.5h0.7V12h1.5v2.2h2.5V16h-2.5v1.9h2.7v1.8h-2.3c0.9,2.2,1.9,3.1,2.5,3.7l-0.7,2.1
			c-0.6-0.6-1.6-2-2.2-3.7v4.8h-1.5v-4.8c-0.4,0.8-1,2.2-2.5,3.7L130.3,23.7z M144.2,23.6c1.5-0.3,1.7-0.3,2.4-0.5v1.8
			c-2.5,0.6-4.6,0.9-6.3,1.2l-0.2-2c1.8-0.2,2-0.2,2.4-0.3v-4.1h-2.1v-1.8h5.8v1.8h-2V23.6z M149.6,11.9c0.6,0.5,1,0.9,1.6,1.6
			l-0.9,0.8h1.4v1.8h-3.5c0.2,5.2,1.2,8,1.8,8c0.4,0,0.7-1.4,0.9-2.2l1.1,1.5c-0.3,1.4-0.7,3.1-1.8,3.1c-0.8,0-3.2-0.7-3.6-10.3
			h-6.3v-1.8h6.3c0-0.4,0-2,0-2.3h1.8c0,0.4,0,1.5,0,2.3h1.6c-0.5-0.6-0.9-1-1.3-1.4L149.6,11.9z M164.5,18.2
			c-0.3-0.2-1.2-0.8-1.8-1.3v0.9h-6.5V17c-0.9,0.6-1.5,1-1.9,1.2l-0.9-1.9c2.4-1.1,4.3-2.8,5.1-4.4h1.9c1.3,2.4,4.2,3.9,5.1,4.3
			L164.5,18.2z M162,21.2c1.2,1.5,2,2.7,2.8,4.4l-1.6,1c-0.2-0.5-0.3-0.7-0.5-1c-3.4,0.4-6.4,0.5-8.5,0.6l-0.3-1.9
			c0.3,0,1.5,0,1.7,0c0.2-0.7,0.7-1.8,1-3.2h-2.9v-1.8h11.1v1.8h-6.3c-0.6,1.7-0.7,1.9-1.2,3.1c2,0,2.5-0.1,4.4-0.2
			c-0.6-1.1-0.9-1.5-1.3-2L162,21.2z M161.6,16.1c-1.1-1-1.8-1.9-2.2-2.5c-0.5,0.7-1.4,1.7-2.2,2.5H161.6z M172,16.1
			c-0.3,0.9-0.6,1.6-1.1,2.4c0.5,0.7,1,1.2,1.7,1.8l-0.8,1.8c-0.4-0.4-0.8-0.9-1.1-1.4v5.9h-1.7v-5.4c-0.4,0.5-0.7,0.7-1.3,1.2
			l-0.6-2.1c0.6-0.5,2.4-1.9,3.1-4.1h-2.9v-1.8h1.7V12h1.7v2.3h1.4V16.1z M174.4,12h1.7v4.1h2.4v2h-2.4v6h2.7V26h-7.3v-1.9h2.9v-6
			h-2.3v-2h2.3V12z M193.7,12.3h1.9v2.8h2v2h-2V19c0,5.1-3.2,6.5-6.3,7.1l-0.6-2c2.4-0.4,5-1.2,5-5v-1.9h-3.6v4h-1.9v-4h-2v-2h2
			v-2.8h1.9v2.8h3.6V12.3z M205.9,26h-2v-6.9c-0.9,0.7-2.5,1.8-4.5,2.6l-0.8-2c4.4-1.7,7.6-5.1,9.3-7.7l1.7,1.3
			c-0.5,0.7-1.7,2.4-3.6,4.1V26z M218.1,25.8c-1.7-3.2-4.8-6.2-5.2-6.5l1.4-1.4c1.2,1.1,1.6,1.4,2.3,2.2c2.4-2,3-3.6,3.4-4.5h-8.5
			v-2.1h11.1c-0.7,4-2.9,6.5-4.7,8.1c0.9,1.1,1.3,1.7,2,2.7L218.1,25.8z M227.5,17c0,6.1-1.5,8.1-2.3,9.2l-1.4-1.8
			c0.8-1,1.9-2.5,1.9-7.1V13h1.8V17z M235.7,18.4c-0.3,1.7-0.9,4.3-2.7,5.9c-1.3,1.2-2.5,1.4-3.9,1.6V12.5h1.8v10.7
			c1.4-0.7,2.5-1.8,3.1-5.7L235.7,18.4z M243,19.2c0,1.1-0.9,2-2,2c-1.1,0-2-0.9-2-2c0-1.1,0.9-2,2-2S243,18.1,243,19.2z M253.2,26
			h-2v-6.9c-0.9,0.7-2.5,1.8-4.5,2.6l-0.8-2c4.4-1.7,7.6-5.1,9.3-7.7l1.7,1.3c-0.5,0.7-1.7,2.4-3.6,4.1V26z M262.8,17.2
			c-1.5-1.2-2.3-1.7-4.1-2.4l0.8-1.9c2.2,0.8,3.5,1.7,4.2,2.3L262.8,17.2z M259,23.4c5-0.4,7.8-3.4,9.1-9.6l1.6,1.2
			c-1,3.8-2.6,9.7-10.3,10.8L259,23.4z M271.2,17.7c1.5-1.1,2.7-2.8,3.4-4.8h7.2c-0.5,6.6-2.9,11.1-8.8,13.1l-0.9-1.9
			c2.2-0.6,4-1.8,5.3-3.5c-1.6-1.6-2.5-2.1-3.5-2.7c-0.4,0.4-0.8,0.9-1.5,1.5L271.2,17.7z M275.8,14.9c-0.4,0.8-0.6,1.1-0.9,1.6
			c1.1,0.6,2.2,1.2,3.5,2.5c0.5-1,0.9-2,1.2-4.1H275.8z M293.6,18.2v2.2h-9.9v-2.2H293.6z M307.3,15.5v2.1H303
			c-0.1,3.5-0.6,6.5-5.2,8.5l-1.1-1.9c4.2-1.6,4.2-4.2,4.3-6.6h-4.7v-2.1h4.7v-3.2h1.9v3.2H307.3z M313.3,20
			c-1.5-1.1-2.6-1.5-3.8-1.9l0.6-1.8c1.7,0.5,2.6,0.9,3.9,1.8L313.3,20z M320.4,15.8c-1.6,7.2-5.2,9.2-9.8,10l-0.5-2.3
			c3.8-0.4,7.2-1.8,8.7-8.9L320.4,15.8z M314.4,16.1c-1.6-1.1-2.8-1.5-3.9-1.8l0.6-1.7c2.1,0.6,3.5,1.4,4,1.7L314.4,16.1z
			 M323.3,21.3v-1.7h6.1v-2.2h-6.2v-1.8h8v10.1H323v-1.8h6.4v-2.4H323.3z M345,15.5v2.1h-4.3c-0.1,3.5-0.6,6.5-5.2,8.5l-1.1-1.9
			c4.2-1.6,4.2-4.2,4.3-6.6h-4.7v-2.1h4.7v-3.2h1.9v3.2H345z M349.5,16.9c0,6.1-1.5,8.1-2.3,9.2l-1.4-1.8c0.8-1,1.9-2.5,1.9-7.1
			v-4.4h1.8V16.9z M357.8,18.3c-0.3,1.7-0.8,4.3-2.7,5.9c-1.3,1.2-2.5,1.4-3.9,1.6V12.4h1.8v10.7c1.4-0.7,2.5-1.7,3.1-5.7
			L357.8,18.3z"/>
		<path id="VI_8_" class="st2" d="M17.4,4c0,0.5,0.1,1.2,0.6,2c0.5,0.8,1.1,1.2,1.4,1.4c0.3,0.2,1,0.6,2.1,0.6c1.1,0,2-0.5,2.6-1.1
			c0.6-0.6,1-1.2,1.3-2.2c0.2-1-0.1-1.9-0.3-2.4c-0.2-0.5-0.8-1.3-1.6-1.8C22.5,0,21.8,0,21.4,0c-0.4,0-1.3,0.1-2.3,0.7
			c-0.9,0.6-1.5,1.4-1.7,2.5C17.4,3.6,17.4,3.9,17.4,4z M16.6,8.4c-0.4,0.1-1,0.3-1.7,0.7c-0.3,0.2-0.7,0.5-1.1,0.8
			c-0.3,0.3-1.2,0.9-1.4,1.1c-0.2,0.2-1.4,1.1-1.9,1.4c-0.5,0.4-1,0.8-1.2,0.9c-0.2,0.1-0.6,0.4-1,0.7c-0.4,0.3-1,0.9-0.8,1.5
			c0.2,0.6,1.3,1.1,1.6,1.2c0.2,0.1,0.6,0.2,1.3,0.3c0.8,0.1,1.7,0.4,2.1,0.7c0.4,0.3,0.6,0.6,0.3,1.1c-0.3,0.4-0.7,0.8-0.9,1.3
			c-0.4,0.8,0.1,1.1,0.7,1.3c0.4,0.1,0.8,0.2,1,0.2c0.2,0,0.7,0.1,0.9,0.3c0.3,0.1,0.5,0.3,0.5,0.5c0,0.2-0.2,0.4-0.5,0.6
			c-0.3,0.2-0.6,0.3-1.1,0.6c-0.5,0.3-0.8,0.6-0.7,0.8c0.1,0.2,0.1,0.4,0.9,0.8c0.4,0.2,0.6,0.2,0.9,0.6c0.3,0.4,0.1,1,0,1.2
			c-0.1,0.2-0.4,0.6-0.5,0.9c-0.1,0.2-0.7,1.5,0.4,2c-0.4,0-0.7-0.1-0.9-0.1c-0.2,0-0.9-0.1-1.2-0.2c-0.3,0-1.2-0.2-1.6-0.3
			C10.4,29.3,9.5,29,9.3,29c-0.2-0.1-1.4-0.5-2-0.8c-0.6-0.3-1.5-0.7-2.3-1.2c-0.8-0.5-1.7-1.2-2.1-1.7c-0.5-0.5-1.1-1.1-1.6-2
			c-0.5-0.9-0.7-1.4-0.9-1.8C0.2,21.1,0,20.4,0,19.8c0-0.6-0.1-1.4,0.1-2.1C0.3,17,0.5,16.3,1,15.4c0.5-0.8,1.1-1.6,1.6-2.1
			c0.5-0.5,1.1-1,1.6-1.4c0.6-0.4,1.1-0.8,2.1-1.3c1-0.5,1.9-0.8,2.3-1c0.3-0.1,1.4-0.5,2.1-0.6c0.6-0.1,1.4-0.3,2.1-0.4
			c0.6-0.1,1.4-0.2,2.3-0.2C15.9,8.4,16.6,8.4,16.6,8.4z M19,8.6c0.8,0.1,1.7,0.3,2.6,0.5c0.9,0.2,1.8,0.5,2.8,0.9
			c0.9,0.3,2.1,1,2.3,1.1c0.2,0.1,1.2,0.7,2,1.4c0.8,0.7,1.3,1.1,2,2.1c0.7,0.9,1.1,1.9,1.3,2.4c0.2,0.5,0.4,1.3,0.4,2.4
			c0,1.1-0.2,1.8-0.4,2.4c-0.2,0.6-0.5,1.2-0.8,1.8c-0.4,0.6-0.6,0.9-1.2,1.5c-0.6,0.6-1.3,1.2-1.7,1.5c-0.4,0.3-1.1,0.7-1.7,1.1
			c-0.7,0.4-1.6,0.8-2.5,1.1c-0.9,0.3-1.7,0.6-2.4,0.7c-0.7,0.2-1.4,0.3-2.2,0.4c-0.8,0.1-1.5,0.2-1.9,0.2c-0.4,0-1,0-1.5,0
			c1-0.4,2.1-1.1,2.6-1.3c0.5-0.3,1.2-0.8,1.6-1.1c0.4-0.3,1.2-0.9,1.7-1.3c0.4-0.3,1.1-0.9,1.6-1.4c0.5-0.5,1-1.1,1.2-1.5
			c0.3-0.4,0.4-0.8,0.5-1c0.1-0.2,0.2-0.7,0.1-1c-0.2-0.7-1.1-0.8-1.8-0.8c-0.7,0-1.6,0.1-2.7,0.2c-1.1,0.1-1.5,0.1-1.9,0
			c-0.4-0.1-1-0.2-1.4-0.7c-0.4-0.5-0.1-0.8-0.1-1c0.1-0.2,0.6-0.5,0.8-0.7c0.3-0.2,0.6-0.6,0.7-0.7c0.1-0.2,0.4-0.5,0.4-0.6
			c0.1-0.1,0.5-0.7,0.2-1.1c-0.3-0.6-1-0.7-1.3-0.7c-0.3,0-1.1,0-1.5,0c-0.3,0-1-0.1-1.2-0.1c-0.2,0-0.4-0.1-0.7-0.3
			c-0.2-0.2,0-0.6,0.2-0.9c0.2-0.3,0.7-0.8,1.1-1.2c0.4-0.4,1.3-1.3,1.5-1.7c0.3-0.4,0.4-0.6,0.5-1c0.1-0.3,0.1-0.6-0.1-1
			c-0.2-0.4-0.6-0.5-0.9-0.6C17.5,8.5,18.2,8.5,19,8.6z M50,23.1c0,1.9-0.8,3.5-2.1,4.5c-1.7,1.3-3.6,1.5-5.4,1.5
			c-1.8,0-3.6-0.3-5.3-1l-0.6-2.8c1.6,1.1,3.6,1.7,5.4,1.7c0.6,0,2.1-0.1,2.9-1c0.4-0.4,0.6-1,0.6-1.7c0-1.9-1.8-2.8-3.7-3.7
			c-2.4-1.2-5.2-2.5-5.2-6.1c0-1.6,0.8-3.1,2-4c1.2-0.9,2.9-1.4,4.8-1.4c1.5,0,3.1,0.3,4.4,0.8v2.3c-1.2-0.7-2.5-1.1-3.6-1.1
			c-1.5,0-3,0.8-3,2.5c0,1.7,1.7,2.4,2.7,2.9l0.3,0.1c0,0,0.2,0.1,0.2,0.1c1.3,0.6,2.5,1.2,3.6,2.1C49.4,20.2,50,21.4,50,23.1z
			 M58.5,9.7c-0.6,1-0.6,2.2-0.6,3.3l0,0.5v11.4l0,0.5c0,1.1,0,2.3,0.6,3.3h-5.7c0.6-1,0.6-2.2,0.6-3.3l0-0.5V13.5l0-0.5
			c0-1.1,0-2.4-0.6-3.3H58.5z M83.5,24.7c0.1,1.4,0.3,2.8,1.1,4h-5.8c0.3-0.5,0.6-1.1,0.5-1.8c0,0-1.1-10.7-1.1-10.7l0-0.5h-0.4
			h-0.1h-0.4l-0.1,0.4L73.6,29c-0.8-0.3-1.5-0.7-2.2-1.2c-1.1-0.8-1.5-1.8-2-3.1l-0.1-0.4c0,0-2.9-8.1-2.9-8.1l-0.1-0.3h-0.3h-0.1
			h-0.4l0,0.5l-1,10.6c-0.1,0.7,0.1,1.4,0.5,2h-3.5c0.7-1,0.8-2.2,0.9-3.4l0-0.4c0,0,1.4-12.8,1.4-12.8c0.1-0.9-0.1-1.7-0.6-2.5h5.4
			l4.3,11.5l0.5,1.4l0.4-1.4L77,9.7h5.5c-0.3,0.4-0.5,0.9-0.4,1.7c0,0,1.4,13.2,1.4,13.2C83.5,24.6,83.5,24.7,83.5,24.7z
			 M117.7,26.1l-0.7,2.7h-11.3c0.6-1,0.6-2.2,0.6-3.3l0-0.5V13.5l0-0.5c0-1.1,0-2.4-0.6-3.3h5.7c-0.6,1-0.6,2.2-0.6,3.4l0,0.5v12.3
			v0.3l0.3,0.1c1,0.5,2.2,0.6,3.3,0.6C115.7,26.8,116.7,26.6,117.7,26.1z M97.9,22.1l0-0.3v-8.3l0-0.5c0-1.1,0-2.4-0.6-3.3h5.6
			c-0.6,1-0.6,2.2-0.6,3.3l0,0.5V22c0,0.8,0,1.3-0.1,1.8c0,0.5-0.2,1.4-0.6,2.2c-0.4,0.8-0.9,1.3-1.5,1.7c-0.6,0.4-1.3,0.8-2,1
			c-0.8,0.2-1.8,0.5-3.5,0.5c-1.7,0-3.5-0.3-4.5-1c-0.5-0.3-1.2-0.7-1.8-1.6c-0.6-0.9-0.8-1.8-0.9-2.6c-0.1-0.8-0.1-1.8-0.1-2v-8.4
			l0-0.5c0-1.1,0-2.4-0.6-3.3h5.6c-0.6,1-0.6,2.2-0.6,3.3l0,0.5v8.3l0,0.3c0,0.9-0.2,3.9,1.6,4.8c1.6,0.9,3.7,0.2,4.2-0.9
			C97.8,24.9,97.9,24.2,97.9,22.1z"/>
	</g>
</g>
<g id="VI単体">
</g>
<g id="guide">
</g>
</svg>
