<?xml version="1.0" encoding="utf-8"?>
<!-- Generator: Adobe Illustrator 22.0.1, SVG Export Plug-In . SVG Version: 6.00 Build 0)  -->
<svg version="1.1" xmlns="http://www.w3.org/2000/svg" xmlns:xlink="http://www.w3.org/1999/xlink" x="0px" y="0px"
	 viewBox="0 0 126 56" style="enable-background:new 0 0 126 56;" xml:space="preserve">
<style type="text/css">
	.st0{fill:#251E1C;}
	.st1{fill-rule:evenodd;clip-rule:evenodd;fill:#3358A2;}
	.st2{fill-rule:evenodd;clip-rule:evenodd;fill:#0F58A8;}
	.st3{fill-rule:evenodd;clip-rule:evenodd;fill:#FFFFFF;}
	.st4{fill:#3358A2;}
	.st5{fill:none;stroke:#868687;stroke-width:0.7597;stroke-miterlimit:10;}
	.st6{fill-rule:evenodd;clip-rule:evenodd;fill:#FFFFFF;stroke:#251E1C;stroke-width:0.5538;stroke-miterlimit:10;}
	.st7{fill:none;stroke:#868687;stroke-miterlimit:10;}
	.st8{fill:none;stroke:#868687;stroke-width:0.9158;stroke-miterlimit:10;}
	.st9{fill:none;stroke:#868687;stroke-width:0.9501;stroke-miterlimit:10;}
	.st10{fill:none;stroke:#868687;stroke-width:0.9667;stroke-miterlimit:10;}
	.st11{fill:none;stroke:#868687;stroke-width:0.7987;stroke-miterlimit:10;}
	.st12{fill:none;stroke:#868687;stroke-width:0.9354;stroke-miterlimit:10;}
	.st13{fill:none;stroke:#868687;stroke-width:0.7564;stroke-miterlimit:10;}
	.st14{fill:none;stroke:#868687;stroke-width:0.7535;stroke-miterlimit:10;}
	.st15{fill:none;stroke:#868687;stroke-width:0.7457;stroke-miterlimit:10;}
	.st16{fill:none;stroke:#868687;stroke-width:0.7532;stroke-miterlimit:10;}
	.st17{fill:none;stroke:#868687;stroke-width:0.7634;stroke-miterlimit:10;}
	.st18{fill:none;stroke:#868687;stroke-width:0.7557;stroke-miterlimit:10;}
	.st19{fill:none;stroke:#868687;stroke-width:0.8087;stroke-miterlimit:10;}
	.st20{fill:none;stroke:#868687;stroke-width:0.7541;stroke-miterlimit:10;}
	.st21{fill:none;stroke:#868687;stroke-width:0.6588;stroke-miterlimit:10;}
	.st22{fill:none;stroke:#868687;stroke-width:1.0459;stroke-miterlimit:10;}
	.st23{fill:#C40018;}
	.st24{fill:#595858;}
</style>
<g id="社名_xFF08_英文_xFF09_">
</g>
<g id="社名_xFF08_和文_xFF09_">
</g>
<g id="VI_x2F_タイプフェース_x5F_和文英文_x5F__xFF12_段組み">
</g>
<g id="VI_x2F_タイプフェース_x5F_英文_x5F_横組み">
</g>
<g id="VI_x2F_タイプフェース_x5F_和文_x5F_横組み">
	<path id="社名_xFF08_和文_xFF09__2_" class="st0" d="M2.7,41.7c0.3-0.2,1.1-0.9,1.6-2.2H3v-1h1.6v-1H4
		c-0.1,0.2-0.2,0.5-0.4,0.9l-0.7-0.6c0,0,0-0.1,0-0.1H2.3v0.6c0.4,0.8,0.7,1.2,0.9,1.5l-0.5,0.8c-0.2-0.3-0.3-0.7-0.4-0.9v3.4H1.5
		v-3.4c-0.1,0.4-0.3,1-0.7,1.8l-0.3-1.3c0.6-0.9,0.8-1.9,0.9-2.5H0.7v-1h0.9v-1.4h0.8v1.4H3v0.6c0.4-0.9,0.5-1.5,0.5-1.8l0.8,0.1
		c-0.1,0.5-0.1,0.6-0.1,0.8h0.4v-1.2h0.8v1.2h1.3v1H5.4v1h1.5v1H5.6c0.5,1.2,1,1.6,1.4,2l-0.4,1.1c-0.3-0.3-0.9-1.1-1.2-2v2.6H4.6
		v-2.6c-0.2,0.5-0.5,1.2-1.3,2L2.7,41.7z M10.2,41.6c0.8-0.1,0.9-0.2,1.3-0.3v1c-1.3,0.3-2.5,0.5-3.4,0.6l-0.1-1
		c1-0.1,1.1-0.1,1.3-0.2v-2.2H8.2v-1h3.1v1h-1.1V41.6z M13.2,35.4c0.3,0.3,0.5,0.5,0.8,0.9l-0.5,0.4h0.7v1h-1.9
		c0.1,2.8,0.6,4.3,1,4.3c0.2,0,0.4-0.8,0.5-1.2l0.6,0.8c-0.2,0.8-0.4,1.7-1,1.7c-0.4,0-1.7-0.4-1.9-5.6H8v-1h3.4c0-0.2,0-1.1,0-1.2
		h0.9c0,0.2,0,0.8,0,1.2h0.9c-0.3-0.3-0.5-0.5-0.7-0.8L13.2,35.4z M21.1,38.7c-0.2-0.1-0.6-0.4-1-0.7v0.5h-3.5v-0.4
		c-0.5,0.3-0.8,0.5-1,0.7l-0.5-1c1.3-0.6,2.3-1.5,2.8-2.4h1c0.7,1.3,2.2,2.1,2.7,2.3L21.1,38.7z M19.8,40.4c0.6,0.8,1.1,1.5,1.5,2.4
		l-0.9,0.6c-0.1-0.3-0.2-0.4-0.3-0.6c-1.9,0.2-3.4,0.3-4.6,0.3l-0.1-1c0.1,0,0.8,0,0.9,0c0.1-0.4,0.4-0.9,0.5-1.7h-1.5v-1h5.9v1H18
		c-0.3,0.9-0.4,1-0.6,1.7c1,0,1.4,0,2.4-0.1c-0.3-0.6-0.5-0.8-0.7-1L19.8,40.4z M19.6,37.6c-0.6-0.5-0.9-1-1.2-1.3
		c-0.3,0.4-0.7,0.9-1.2,1.3H19.6z M25.2,37.6c-0.2,0.5-0.3,0.9-0.6,1.3c0.3,0.4,0.6,0.7,0.9,1l-0.4,1c-0.2-0.2-0.4-0.5-0.6-0.8v3.1
		h-0.9v-2.9c-0.2,0.3-0.4,0.4-0.7,0.6l-0.3-1.1c0.3-0.2,1.3-1,1.7-2.2h-1.6v-1h0.9v-1.2h0.9v1.2h0.7V37.6z M26.5,35.4h0.9v2.2h1.3
		v1.1h-1.3v3.2h1.4v1h-3.9v-1h1.6v-3.2h-1.3v-1.1h1.3V35.4z M36.9,35.6h1v1.5H39v1.1h-1.1v1c0,2.7-1.7,3.5-3.4,3.8l-0.3-1.1
		c1.3-0.2,2.7-0.6,2.7-2.7v-1h-1.9v2.2h-1v-2.2h-1.1v-1.1H34v-1.5h1v1.5h1.9V35.6z M43.4,42.9h-1.1v-3.7c-0.5,0.4-1.4,1-2.4,1.4
		l-0.5-1.1c2.4-0.9,4.1-2.8,5-4.2l0.9,0.7c-0.3,0.4-0.9,1.3-2,2.2V42.9z M50,42.8c-0.9-1.7-2.6-3.3-2.8-3.5l0.7-0.7
		c0.6,0.6,0.8,0.8,1.2,1.2c1.3-1.1,1.6-1.9,1.8-2.4h-4.6v-1.1h6c-0.4,2.1-1.6,3.5-2.5,4.4c0.5,0.6,0.7,0.9,1.1,1.4L50,42.8z
		 M55,38.1c0,3.3-0.8,4.3-1.3,5l-0.7-1c0.4-0.6,1-1.4,1-3.8v-2.4h1V38.1z M59.5,38.9C59.3,39.8,59,41.2,58,42
		c-0.7,0.6-1.3,0.7-2.1,0.9v-7.2h1v5.8c0.8-0.4,1.4-0.9,1.6-3.1L59.5,38.9z M63.3,39.3c0,0.6-0.5,1.1-1.1,1.1
		c-0.6,0-1.1-0.5-1.1-1.1c0-0.6,0.5-1.1,1.1-1.1C62.9,38.2,63.3,38.7,63.3,39.3z M68.8,42.9h-1.1v-3.7c-0.5,0.4-1.4,1-2.4,1.4
		l-0.5-1.1c2.4-0.9,4.1-2.8,5-4.2l0.9,0.7c-0.3,0.4-0.9,1.3-2,2.2V42.9z M74,38.2c-0.8-0.6-1.2-0.9-2.2-1.3l0.4-1
		c1.2,0.4,1.9,0.9,2.3,1.2L74,38.2z M72,41.5c2.7-0.2,4.2-1.8,4.9-5.1l0.9,0.6c-0.5,2-1.4,5.2-5.5,5.8L72,41.5z M78.5,38.5
		c0.8-0.6,1.5-1.5,1.8-2.6h3.9c-0.3,3.5-1.6,6-4.7,7.1l-0.5-1c1.2-0.3,2.2-0.9,2.9-1.9c-0.9-0.8-1.4-1.1-1.9-1.5
		c-0.2,0.2-0.4,0.5-0.8,0.8L78.5,38.5z M81,37c-0.2,0.4-0.3,0.6-0.5,0.9c0.6,0.3,1.2,0.7,1.9,1.3c0.2-0.5,0.5-1.1,0.7-2.2H81z
		 M90.6,38.7v1.2h-5.3v-1.2H90.6z M97.9,37.3v1.1h-2.3c0,1.9-0.3,3.5-2.8,4.6l-0.6-1c2.2-0.9,2.3-2.3,2.3-3.5h-2.5v-1.1h2.5v-1.7h1
		v1.7H97.9z M101.2,39.7c-0.8-0.6-1.4-0.8-2-1l0.3-1c0.9,0.3,1.4,0.5,2.1,1L101.2,39.7z M105,37.4c-0.9,3.9-2.8,4.9-5.3,5.4
		l-0.2-1.2c2-0.2,3.9-1,4.7-4.8L105,37.4z M101.8,37.6c-0.9-0.6-1.5-0.8-2.1-1l0.3-0.9c1.1,0.3,1.9,0.7,2.2,0.9L101.8,37.6z
		 M106.6,40.4v-0.9h3.3v-1.2h-3.4v-1h4.3v5.4h-4.4v-1h3.4v-1.3H106.6z M118.2,37.3v1.1h-2.3c0,1.9-0.3,3.5-2.8,4.6l-0.6-1
		c2.2-0.9,2.3-2.3,2.3-3.5h-2.5v-1.1h2.5v-1.7h1v1.7H118.2z M120.7,38c0,3.3-0.8,4.3-1.3,5l-0.7-1c0.4-0.6,1-1.4,1-3.8v-2.4h1V38z
		 M125.1,38.8c-0.2,0.9-0.5,2.3-1.4,3.2c-0.7,0.6-1.3,0.7-2.1,0.9v-7.2h1v5.8c0.7-0.4,1.4-0.9,1.6-3.1L125.1,38.8z"/>
	<path id="VI_9_" class="st2" d="M13.1,9.4c0,0.4,0.1,0.9,0.4,1.5c0.4,0.6,0.8,0.9,1,1c0.2,0.1,0.8,0.4,1.6,0.4c0.8,0,1.5-0.4,2-0.8
		c0.4-0.4,0.8-0.9,0.9-1.7c0.2-0.8-0.1-1.4-0.2-1.8c-0.2-0.4-0.6-1-1.2-1.3c-0.6-0.4-1.2-0.4-1.5-0.4c-0.3,0-1,0-1.7,0.5
		c-0.7,0.5-1.1,1-1.3,1.9C13.1,9.1,13.1,9.3,13.1,9.4z M12.5,12.7c-0.3,0-0.8,0.2-1.3,0.6c-0.2,0.2-0.6,0.4-0.8,0.6
		c-0.3,0.2-0.9,0.7-1,0.8c-0.2,0.1-1,0.8-1.4,1.1c-0.4,0.3-0.7,0.6-0.9,0.7C7,16.6,6.7,16.8,6.4,17c-0.3,0.3-0.7,0.7-0.6,1.1
		c0.1,0.5,1,0.9,1.2,0.9c0.2,0.1,0.4,0.1,1,0.2c0.6,0.1,1.3,0.3,1.6,0.5c0.3,0.2,0.5,0.5,0.2,0.8c-0.2,0.3-0.5,0.6-0.7,1
		c-0.3,0.6,0.1,0.9,0.5,1c0.3,0.1,0.6,0.1,0.7,0.1c0.1,0,0.5,0.1,0.7,0.2c0.2,0.1,0.4,0.2,0.3,0.3c0,0.2-0.1,0.3-0.4,0.5
		c-0.3,0.2-0.4,0.3-0.8,0.5c-0.4,0.2-0.6,0.5-0.6,0.6c0.1,0.2,0.1,0.3,0.7,0.6c0.3,0.1,0.5,0.2,0.7,0.5c0.2,0.3,0,0.7,0,0.9
		c-0.1,0.1-0.3,0.5-0.4,0.7c-0.1,0.2-0.5,1.1,0.3,1.5c-0.3,0-0.5,0-0.7-0.1c-0.2,0-0.7-0.1-0.9-0.1c-0.2,0-0.9-0.2-1.2-0.2
		c-0.3-0.1-1-0.3-1.1-0.3c-0.2-0.1-1-0.3-1.5-0.6c-0.5-0.2-1.2-0.5-1.7-0.9c-0.6-0.4-1.3-0.9-1.6-1.3c-0.4-0.4-0.8-0.8-1.2-1.5
		c-0.4-0.6-0.5-1.1-0.6-1.4C0.2,22.3,0,21.7,0,21.3c0-0.4,0-1.1,0.1-1.6c0.1-0.5,0.3-1.1,0.7-1.7c0.4-0.6,0.8-1.2,1.2-1.6
		c0.4-0.4,0.8-0.8,1.2-1.1c0.4-0.3,0.9-0.6,1.6-1c0.7-0.4,1.5-0.6,1.7-0.7c0.3-0.1,1.1-0.4,1.6-0.5c0.5-0.1,1.1-0.2,1.6-0.3
		c0.5-0.1,1.1-0.1,1.7-0.2C12,12.7,12.5,12.7,12.5,12.7z M14.4,12.9c0.6,0.1,1.3,0.2,1.9,0.3c0.6,0.1,1.4,0.4,2.1,0.7
		c0.7,0.3,1.6,0.7,1.7,0.8c0.1,0.1,0.9,0.5,1.5,1c0.6,0.5,1,0.9,1.5,1.6c0.5,0.7,0.8,1.4,1,1.8c0.1,0.4,0.3,1,0.3,1.8
		c0,0.8-0.1,1.3-0.3,1.8c-0.2,0.5-0.4,0.9-0.6,1.3c-0.3,0.4-0.4,0.7-0.9,1.2c-0.4,0.5-1,0.9-1.3,1.2c-0.3,0.2-0.8,0.6-1.3,0.8
		c-0.5,0.3-1.2,0.6-1.9,0.8c-0.7,0.3-1.3,0.4-1.8,0.5c-0.5,0.1-1.1,0.2-1.7,0.3c-0.6,0.1-1.2,0.1-1.4,0.1c-0.3,0-0.7,0-1.1,0
		c0.8-0.3,1.6-0.8,2-1c0.4-0.2,0.9-0.6,1.2-0.8c0.3-0.2,0.9-0.7,1.2-0.9c0.3-0.3,0.8-0.7,1.2-1.1c0.4-0.4,0.7-0.8,0.9-1.2
		c0.2-0.3,0.3-0.6,0.4-0.8c0-0.1,0.2-0.5,0.1-0.8c-0.1-0.5-0.8-0.6-1.4-0.6c-0.6,0-1.2,0.1-2.1,0.2c-0.9,0.1-1.1,0.1-1.4,0
		c-0.3-0.1-0.7-0.2-1-0.5c-0.3-0.4-0.1-0.6,0-0.7c0.1-0.1,0.4-0.4,0.6-0.6c0.2-0.2,0.4-0.4,0.5-0.6c0.1-0.1,0.3-0.4,0.3-0.5
		c0-0.1,0.3-0.5,0.2-0.9c-0.2-0.4-0.8-0.5-1-0.5c-0.2,0-0.8,0-1.1,0c-0.3,0-0.7,0-0.9-0.1c-0.1,0-0.3,0-0.5-0.2
		c-0.2-0.2,0-0.5,0.2-0.7c0.2-0.2,0.6-0.6,0.8-0.9c0.3-0.3,0.9-1,1.2-1.3c0.2-0.3,0.3-0.5,0.4-0.7c0-0.2,0.1-0.5-0.1-0.7
		c-0.2-0.3-0.5-0.4-0.7-0.5C13.2,12.7,13.7,12.8,14.4,12.9z M37.7,23.8c0,1.4-0.6,2.6-1.6,3.4c-1.3,1-2.7,1.1-4.1,1.1
		c-1.4,0-2.7-0.3-4-0.7l-0.5-2.1c1.2,0.8,2.7,1.3,4.1,1.3c0.4,0,1.6-0.1,2.2-0.8c0.3-0.3,0.5-0.8,0.5-1.3c0-1.4-1.4-2.1-2.8-2.8
		c-1.8-0.9-3.9-1.9-3.9-4.6c0-1.2,0.6-2.4,1.5-3c0.9-0.7,2.2-1,3.6-1c1.2,0,2.3,0.2,3.3,0.6v1.8c-0.9-0.5-1.9-0.8-2.8-0.8
		c-1.1,0-2.3,0.6-2.3,1.9c0,1.3,1.2,1.8,2.1,2.2l0.2,0.1c0,0,0.1,0.1,0.1,0.1c1,0.5,1.9,0.9,2.7,1.6C37.3,21.6,37.7,22.5,37.7,23.8z
		 M44.2,13.6c-0.5,0.7-0.5,1.7-0.5,2.5l0,0.4v8.6l0,0.4c0,0.8,0,1.8,0.5,2.5h-4.3c0.5-0.7,0.5-1.7,0.5-2.5l0-0.4v-8.6l0-0.4
		c0-0.9,0-1.8-0.5-2.5H44.2z M63,25c0.1,1.1,0.2,2.1,0.8,3h-4.4c0.2-0.4,0.4-0.8,0.4-1.4c0,0-0.8-8.1-0.8-8.1l0-0.3h-0.3h-0.1h-0.3
		l-0.1,0.3l-2.8,9.7c-0.6-0.2-1.1-0.5-1.7-0.9c-0.8-0.6-1.1-1.4-1.5-2.4l-0.1-0.3c0,0-2.2-6.1-2.2-6.1L50,18.3h-0.3h-0.1h-0.3l0,0.3
		l-0.8,8c0,0.6,0.1,1.1,0.4,1.5h-2.7c0.5-0.8,0.6-1.7,0.7-2.6l0-0.3c0,0,1.1-9.7,1.1-9.7c0.1-0.7-0.1-1.3-0.5-1.9h4.1l3.2,8.7l0.4,1
		l0.3-1.1l2.5-8.6h4.2c-0.2,0.3-0.4,0.7-0.3,1.3C62,14.9,63,24.9,63,25C63,24.9,63,25,63,25z M88.8,26l-0.5,2h-8.5
		c0.5-0.7,0.5-1.7,0.5-2.5l0-0.4v-8.6l0-0.4c0-0.9,0-1.8-0.5-2.5H84c-0.5,0.7-0.5,1.7-0.5,2.5l0,0.4v9.3v0.2l0.2,0.1
		c0.8,0.4,1.6,0.4,2.5,0.4C87.3,26.6,88.1,26.4,88.8,26z M73.9,23.1l0-0.2v-6.3l0-0.4c0-0.9,0-1.8-0.5-2.5h4.2
		c-0.5,0.7-0.5,1.7-0.5,2.5l0,0.4v6.4c0,0.6,0,1-0.1,1.4c0,0.3-0.1,1.1-0.4,1.6c-0.3,0.6-0.7,1-1.2,1.3c-0.5,0.3-1,0.6-1.5,0.8
		c-0.6,0.2-1.4,0.4-2.6,0.4c-1.3,0-2.6-0.2-3.4-0.7c-0.3-0.2-0.9-0.5-1.4-1.2c-0.5-0.7-0.6-1.4-0.7-1.9c-0.1-0.6-0.1-1.3-0.1-1.5
		v-6.4l0-0.4c0-0.9,0-1.8-0.5-2.5h4.2C69,14.4,69,15.3,69,16.2l0,0.4v6.3l0,0.2c0,0.7-0.2,2.9,1.2,3.6c1.2,0.7,2.8,0.2,3.2-0.7
		C73.8,25.1,73.9,24.6,73.9,23.1z"/>
</g>
<g id="VI単体">
</g>
<g id="guide">
</g>
</svg>
